# xmcd
#
# Track frame offsets: 
#        150
#        17140
#        29483
#        42339
#        53471
#        64957
#        75566
#        98741
#        110347
#        131578
#        143258
#        158508
#        170588
#        183628
#        198743
#        210337
#        231715
#        245748
#
# Disc length: 3437 seconds
#
# Revision: 0
# Processed by: cddbd v1.5.2PL0 Copyright (c) Steve Scherf et al.
# Submitted via: ExactAudioCopyFreeDBPlugin 1.0
#
DISCID=f70d6b12
DTITLE=Johnny Cash - American II - Unchained
DYEAR=1996
DGENRE=Country
TTITLE0=Rowboat
TTITLE1=Sea of Heartbreak
TTITLE2=Rusty Cage
TTITLE3=The One Rose
TTITLE4=Country Boy
TTITLE5=Memories Are Made Of This
TTITLE6=Spiritual
TTITLE7=Kneeling Drunkard's Plea
TTITLE8=Southern Accents
TTITLE9=Mean Eyed Cat
TTITLE10=Meet Me In Heaven
TTITLE11=I Never Picked Cotton
TTITLE12=Unchained
TTITLE13=I've Been Everywhere
TTITLE14=Marty Stuart - Outro (from Marty Stuart's The Pilgrim)
TTITLE15=Johnny Cash and Willie Nelson - Ghost Riders In The Sky
TTITLE16=Johnny Cash and Willie Nelson - I Still Miss Someone
TTITLE17=Johnny Cash and Willie Nelson - Unchained
EXTD=
EXTT0=
EXTT1=
EXTT2=
EXTT3=
EXTT4=
EXTT5=
EXTT6=
EXTT7=
EXTT8=
EXTT9=
EXTT10=
EXTT11=
EXTT12=
EXTT13=
EXTT14=
EXTT15=
EXTT16=
EXTT17=
PLAYORDER=
